<?xml version="1.0" encoding="UTF-8"?>
<!--
  TueBiFit in-app mark  same look as Login + LoadingScreen:
  135° gradient (#00e676 ’ #009624), rounded square, Lucide "dumbbell" in #0a1929.
  Open in a browser, or use Inkscape / Figma / any design tool to export PNG.
-->
<svg xmlns="http://www.w3.org/2000/svg" width="512" height="512" viewBox="0 0 96 96" fill="none">
  <defs>
    <linearGradient id="tuebifit-green" x1="0%" y1="0%" x2="100%" y2="100%">
      <stop offset="0%" stop-color="#00e676"/>
      <stop offset="100%" stop-color="#009624"/>
    </linearGradient>
  </defs>
  <rect width="96" height="96" rx="24" fill="url(#tuebifit-green)"/>
  <!-- Lucide "dumbbell" paths (ISC), scaled to match ~48px icon in 96px box -->
  <g transform="translate(24, 24) scale(2)" fill="none" stroke="#0a1929" stroke-width="2.5" stroke-linecap="round" stroke-linejoin="round">
    <path d="M14.4 14.4 9.6 9.6"/>
    <path d="M18.657 21.485a2 2 0 1 1-2.829-2.828l-1.767 1.768a2 2 0 1 1-2.829-2.829l6.364-6.364a2 2 0 1 1 2.829 2.829l-1.768 1.767a2 2 0 1 1 2.828 2.829z"/>
    <path d="m21.5 21.5-1.4-1.4"/>
    <path d="M3.9 3.9 2.5 2.5"/>
    <path d="M6.404 12.768a2 2 0 1 1-2.829-2.829l1.768-1.767a2 2 0 1 1-2.828-2.829l2.828-2.828a2 2 0 1 1 2.829 2.828l1.767-1.768a2 2 0 1 1 2.829 2.829z"/>
  </g>
</svg>
